<?xml version="1.0" encoding="utf-8"?>
<!-- Generator: Adobe Illustrator 26.0.1, SVG Export Plug-In . SVG Version: 6.00 Build 0)  -->
<svg version="1.1" id="Layer_1" xmlns="http://www.w3.org/2000/svg" xmlns:xlink="http://www.w3.org/1999/xlink" x="0px" y="0px"
	 viewBox="0 0 115 115" style="enable-background:new 0 0 115 115;" xml:space="preserve">
<path id="path12798" d="M84.9,13c-5.7,3.1-12.6,1.3-18.9,1.7c-12.8-0.1-25.5-0.2-38.3-0.3l-1.5,46.1c4,1.6,9.2,0.5,10.2-3.5
	c1.8-4.2,7-5.9,12-5.2c6.1-0.3,10.3,3.3,13,7.5c4.6,5.2,5.4,12,5.4,18.3c0.3,4.3-1.5,8.5-3.6,12.3C61,93,57.4,95.2,53,95.3
	c-3.8,0.8-10.1,0.8-11.1-3.2c-0.7-4,5.3-4.5,6.6-7.8c3.1-5.3,0.8-12-3.9-16c-4.8-3.8-13.5-3.4-16.9,1.6c-4.3,5.7-4.3,13-2,19.3
	c0.9,5.5,7.6,8.1,12.8,10.4c9.6,2,20.1,3.8,29.6,0.6c7.5-2.9,14-7.9,18-14.1c2.7-3.4,3.6-5.9,4.5-10.9C91,70,91,65.1,89.6,61
	c-1.1-5.9-6.2-10.4-11.2-14c-5.3-3.5-12.3-3.8-18.7-4.1c-8.4,0-17.6,0.9-24.2,5.9c-2.3-0.8-2.4-6.4-1.9-9.2c0.2-3.6,3.4-7.1,8-6.4
	c13.2,0.1,26.5,0.3,39.7-0.1c5-0.6,5.2-2,5.2-8.9c-0.4-3.5,1.7-8.6-1.2-10.9L84.9,13L84.9,13L84.9,13z"/>
</svg>
