<?xml version="1.0" encoding="utf-8"?>
<!-- Generator: Adobe Illustrator 26.0.1, SVG Export Plug-In . SVG Version: 6.00 Build 0)  -->
<svg version="1.1" id="Layer_1" xmlns="http://www.w3.org/2000/svg" xmlns:xlink="http://www.w3.org/1999/xlink" x="0px" y="0px"
	 viewBox="0 0 115 115" style="enable-background:new 0 0 115 115;" xml:space="preserve">
<path id="path19203-4" d="M63.3,11.1c-2.9,0-5.7,0.4-8.6,1.2c-4.1,1-8,2.6-11.5,5c-2.2,1.5-4.2,3.2-6,5.1c-2.6,2.6-5.1,5.4-6.9,8.7
	c-1.5,2.6-2.6,5.3-3.5,8.2c-1.4,4.5-2.2,9.2-2.5,13.9c-0.2,3.5-0.2,6.9,0,10.4c0.2,4.6,0.8,9.2,2.2,13.7c1.4,4.7,3.6,9.1,6.5,13
	c2.5,3.3,5.4,6.4,8.8,8.7c2.7,1.7,5.7,3.1,8.8,3.9c9.2,2.6,19.4,1.2,27.7-3.7c5.8-3.4,10.8-8.7,13.3-15.2c1.8-4.9,2.2-10.5,0.5-15.5
	c-1.3-3.7-3.7-6.9-6.6-9.4c-2.6-2.3-5.6-4.2-8.8-5.3c-3.4-1.2-7.2-1.8-10.8-1.5c-4.8,0.2-9.5,2.1-14.2,3.3c-0.7,0.2-1.5,0.4-2.2,0.5
	c-0.5,0.1-1.1,0.1-1.7,0c-0.2-0.1-0.5-0.2-0.7-0.3c-0.2-0.2-0.4-0.4-0.5-0.7c-0.2-0.4-0.2-0.9-0.2-1.3c0.2-3.8,0.4-7.7,1.1-11.5
	c0.8-4.7,2.2-9.2,4-13.5c0.6-1.4,1.2-2.9,2.1-4.2c0.8-1.3,1.9-2.5,3.2-3.2c0.7-0.4,1.4-0.7,2.1-0.9c0.7-0.2,1.3-0.4,2-0.4
	c0.8,0,1.7,0.3,2.5,0.4c0.2,0,0.6,0.1,0.8,0.1c0.2,0.1,0.5,0.2,0.7,0.3c0.2,0.2,0.2,0.3,0.3,0.6c0.1,0.2,0.1,0.5,0.1,0.7
	c0.1,0.7,0.1,1.6-0.2,2.2c-0.2,0.6-0.7,1-1,1.5c-0.4,0.7-0.6,1.4-0.7,2.2c-0.3,1.4-0.6,2.9-0.6,4.4c-0.1,1.9,0.2,3.9,0.9,5.7
	c0.9,2.2,2.7,4.1,4.7,5.5c1.6,1.1,3.3,1.9,5.2,2.2c1.8,0.3,3.8,0.2,5.6-0.4c1.5-0.6,2.8-1.5,4.2-2.4c0.9-0.7,1.9-1.3,2.7-2.2
	c0.7-0.7,1.2-1.7,1.7-2.7c0.7-1.8,1-3.9,1.2-5.9c0.1-1.8,0.2-3.7-0.4-5.5c-0.4-1.5-1.2-2.9-2.1-4.2c-1-1.7-2.2-3.2-3.6-4.5
	c-1.6-1.4-3.4-2.3-5.3-3.2c-2-0.9-4.1-1.7-6.2-2.4C68.7,11.6,66,11.2,63.3,11.1z M61.4,59.7c0.9,0,1.9,0.2,2.7,0.7
	c1.7,0.8,3,2.5,3.9,4.2c1.5,2.9,2.2,6.2,2.6,9.5c0.3,3.2,0.2,6.5-0.2,9.7c-0.4,3.2-1.3,6.4-3.2,8.9c-1.2,1.5-2.7,2.7-4.3,3.3
	c-1.4,0.5-2.9,0.7-4.3,0.5s-2.8-0.8-4-1.8c-1-0.8-1.7-2-2.4-3.2c-1-1.8-1.7-3.8-2.2-5.8c-0.7-3.2-1.2-6.4-0.9-9.6
	c0.2-3,1-5.9,1.8-8.7c0.3-1.1,0.7-2.2,1.2-3.2c0.5-1,1.2-2,2.2-2.7c1.2-0.9,2.8-1.3,4.3-1.6C59.5,59.8,60.4,59.7,61.4,59.7z"/>
</svg>
