<?xml version="1.0" encoding="utf-8"?>
<!-- Generator: Adobe Illustrator 26.0.1, SVG Export Plug-In . SVG Version: 6.00 Build 0)  -->
<svg version="1.1" id="Layer_1" xmlns="http://www.w3.org/2000/svg" xmlns:xlink="http://www.w3.org/1999/xlink" x="0px" y="0px"
	 viewBox="0 0 115 115" style="enable-background:new 0 0 115 115;" xml:space="preserve">
<path id="path19249" d="M28.1,9.6l-5.7,27l0.9,1.3l1.1,0.2l1.6-1.3l2.1-3.6c0,0,52.3-1.8,49.6,0.8c-2.6,2.6-5.1,4.7-7.8,7.9
	s-6.1,6.6-8.3,9.5c-2.2,2.9-4.5,5.6-6.5,8.8c-2,3.4-3.9,5.8-6,10c-2.2,4.1-4.9,8.5-6.5,12.4c-1.6,4-4,8.1-4.7,12
	c-0.6,3.6-1.8,9.7-2,10.7h30.2c0.1-5-0.5-8.8,0.5-15.3c1.2-6.8,2.2-16.9,3.5-20.5c1.3-3.6,2.3-8.1,3.7-10.9c1.6-2.6,2.6-5.3,4.6-8
	c1.9-2.8,4.5-5.6,5.7-8.4s3.9-8.4,3.9-8.4l4.4-23.7L28.1,9.6z"/>
</svg>
