<?xml version="1.0" encoding="utf-8"?>
<!-- Generator: Adobe Illustrator 26.0.1, SVG Export Plug-In . SVG Version: 6.00 Build 0)  -->
<svg version="1.1" id="svg3527" xmlns:svg="http://www.w3.org/2000/svg"
	 xmlns="http://www.w3.org/2000/svg" xmlns:xlink="http://www.w3.org/1999/xlink" x="0px" y="0px" viewBox="0 0 115 115"
	 style="enable-background:new 0 0 115 115;" xml:space="preserve">
<g id="layer1" transform="translate(-334,-510.86218)">
	<path id="path3703" d="M381.4,613.6c-12.2-2.4-20.5-8.2-23.9-16.8c-1.3-3.2-1.7-8.9-1-12.6c0.9-4.5,3.7-9.2,7.3-12
		c1.6-1.3,6.5-3.8,7.4-3.8c0.4,0-0.4-0.5-1.5-1.3c-5.2-3-9.4-8.8-10.6-15c-0.9-4.2-0.5-10.4,0.8-14c2.6-6.8,7.8-11.6,15.9-14.5
		c4.9-1.7,9.4-2.3,15.9-2.3c16.4,0,28.5,5.7,32.4,15c1.2,3,1.5,9.2,0.6,12.7c-1.4,5.5-5.5,11.7-10.2,15.2l-1.7,1.3l2.8,1.4
		c3.6,1.9,8.2,6.4,9.6,9.5c1.9,3.9,2.4,7.2,1.9,11.9c-1.2,11.9-10.1,20.7-24.7,24.7C398,614.5,386.8,614.6,381.4,613.6z
		 M397.4,606.4c7.4-1.8,11.7-5.9,11.7-11.1c0-5.6-4.1-10.1-14-15.4c-4.4-2.3-14.9-7.3-15.6-7.3c-0.9,0-4.8,3-6.5,4.9
		c-5,5.8-5.7,15.1-1.4,21.3c2.3,3.4,7.3,6.5,12.2,7.7C387,607.3,394.3,607.3,397.4,606.4z M403.4,557.5c4.6-3,7.2-7,7.9-12.5
		c1.3-9.3-3.1-15.3-12.6-17.2c-4.4-0.9-13.1-0.6-16.1,0.5c-5.1,2-7.3,5-7.3,10.2s2.5,9.2,7.9,13c1.6,1.1,4.4,2.7,6.3,3.6
		c4,1.8,10.9,4.1,11.4,3.9C401.3,558.8,402.4,558.1,403.4,557.5z M461.5,439.7h11.6"/>
</g>
</svg>
