<?xml version="1.0" encoding="utf-8"?>
<!-- Generator: Adobe Illustrator 26.0.1, SVG Export Plug-In . SVG Version: 6.00 Build 0)  -->
<svg version="1.1" id="svg3527" xmlns:svg="http://www.w3.org/2000/svg"
	 xmlns="http://www.w3.org/2000/svg" xmlns:xlink="http://www.w3.org/1999/xlink" x="0px" y="0px" viewBox="0 0 115 115"
	 style="enable-background:new 0 0 115 115;" xml:space="preserve">
<style type="text/css">
	.st0{fill:none;}
</style>
<g id="layer2">
	<path id="path19258" class="st0" d="M69.7,49.3c-1.1,0-2.3-0.4-3.4-1.1c-1-0.6-2-1.3-3-2c-2.6-1.9-5.3-3.4-7.9-5.3
		c-2.4-1.7-4.6-3.9-6.3-6.3c-1.3-1.9-2.1-3.9-2.1-6.1c0-2.1,1-4.3,2.4-5.7c1.3-1.3,2.9-2,4.4-2.6c1.7-0.4,3.4-0.7,5-0.7
		c2.9-0.1,5.9,0.1,8.7,0.7c3.3,0.7,6.4,1.9,9,3.7c2,1.4,3.7,3.4,4.4,5.9c0.7,2.6,0.4,5.3-0.3,7.7c-0.6,2.1-1.4,4.1-2.4,6.1
		c-1,1.7-2.1,3.3-3.7,4.3c-0.9,0.6-1.9,1-3,1.1C70.9,49.3,70.3,49.3,69.7,49.3z"/>
	<path id="path19262" class="st0" d="M52.6,64.6c-0.6-0.1-1,0-1.6,0.1s-1,0.4-1.4,0.7c-0.9,0.7-1.4,1.6-2.1,2.4
		c-1.7,2.1-3.4,4.3-4.7,6.7c-1.4,2.4-2.4,5.3-2.4,8.1c-0.1,3.4,1.1,6.9,3.1,9.4c2.3,3,5.6,5.1,9,6.4c3.6,1.3,7.4,1.9,11.3,1.7
		c3.1-0.1,6.4-0.7,9-2.4c2.6-1.7,4.4-4.3,5.4-7.3c0.4-1.3,0.7-2.6,0.7-3.9c0-1.3-0.3-2.6-0.9-3.7c-0.4-1-1.1-1.9-1.9-2.7
		c-1-1.3-1.9-2.6-3-3.7c-1.9-1.9-4-3.3-6.3-4.6c-2.4-1.4-5-2.9-7.6-4c-1.9-1.1-3.9-2.1-5.9-3C53.3,64.8,53,64.6,52.6,64.6z"/>
	<path id="path19254-0" d="M-50,2.7c-0.9,0-1.6,0.1-2.4,0.1c-1.3-0.1-2.6-0.1-3.7,0c-6.9,0.4-13.7,3.1-19.3,7.3
		c-3.9,2.9-7.3,6.6-8.7,11.1c-1,3.4-0.9,7-0.1,10.4c0.9,4,2.4,7.9,4.7,11.1c2.4,3.3,5.7,6,9.4,7.3c1.3,0.4,2.6,0.7,3.9,0.9
		c0.1,0,0.3,0,0.3,0l0.3,0.1c0.1,0.1,0.1,0.1,0.1,0.3v0.1c0,0,0,0.1-0.1,0.1c-0.1,0-0.1,0-0.3,0c-1.3-0.1-2.7,0-4,0.3
		c-2.3,0.6-4.1,1.9-6,3.3c-3.1,2.4-6,5.3-8,8.9c-2.4,4.1-3.6,9.1-2.7,13.8c0.9,5.4,4.1,10.1,8.3,13.4c4.3,3.3,9.4,5.1,14.7,6.3
		c6.1,1.3,12.6,1.4,18.8,0.7c4.7-0.6,9.4-1.9,13.7-4c3.7-1.9,7-4.6,9.6-7.7c3.3-4,5.4-9,5.9-14.1c0.4-3.9-0.1-7.7-1.6-11.1
		c-1.3-2.9-3.3-5.4-5.3-7.7c-1.7-2-3.4-4-5.9-4.9c-0.6-0.1-1-0.3-1.4-0.7c-0.1-0.1-0.3-0.3-0.3-0.3c-0.1-0.1-0.1-0.3-0.1-0.4
		s0-0.4,0.1-0.6c0.1-0.1,0.1-0.3,0.3-0.4c0.4-0.6,1-0.9,1.6-1.3c1.1-0.9,2.3-2,3.3-3c2.6-2.7,4.6-6,5.7-9.7c1.1-3.6,1.4-7.4,0.7-11
		c-0.7-3.6-2.4-7-5-9.4s-5.7-4-9-5.3c-3.4-1.3-6.9-2.4-10.4-3C-45.3,2.8-47.7,2.7-50,2.7z M-52.3,11.4c2.1,0,4.3,0.3,6.4,0.7
		c3.1,0.7,6.3,1.7,8.9,3.7c2,1.4,3.7,3.4,4.4,5.9c0.7,2.6,0.4,5.3-0.3,7.7c-0.6,2.1-1.4,4.1-2.4,6.1c-1,1.7-2.1,3.3-3.7,4.3
		c-0.9,0.6-1.9,1-3,1.1c-0.6,0.1-1.1,0.1-1.9,0.1c-1.1,0-2.3-0.4-3.3-1.1c-1-0.6-2-1.3-3-2c-2.6-1.9-5.3-3.4-7.9-5.3
		c-2.4-1.7-4.6-3.9-6.3-6.3c-1.1-1.9-2.1-3.9-2.1-6.1c0-2.1,1-4.3,2.4-5.7c1.3-1.3,2.9-2,4.4-2.6c1.6-0.4,3.3-0.7,5-0.7
		C-53.7,11.2-53,11.2-52.3,11.4z M-61.6,56.2c0.3,0,0.6,0,0.7,0c0.3,0,0.7,0.1,1,0.3c2,0.9,4,1.9,5.9,3c2.6,1.3,5,2.6,7.6,4
		c2.3,1.3,4.4,2.7,6.1,4.6c1.1,1.1,2,2.4,3,3.7c0.7,0.9,1.3,1.7,1.9,2.7c0.6,1.1,0.9,2.4,0.9,3.7s-0.3,2.6-0.7,3.9
		c-1,3-2.9,5.6-5.4,7.3c-2.7,1.7-5.9,2.3-9,2.4c-3.9,0.1-7.7-0.4-11.3-1.7c-3.4-1.3-6.7-3.4-9-6.4c-2-2.7-3.1-6.1-3.1-9.4
		c0.1-2.9,1-5.6,2.4-8.1c1.3-2.4,3.1-4.6,4.7-6.7c0.7-0.9,1.3-1.7,2.1-2.4c0.4-0.3,0.9-0.6,1.4-0.7C-62,56.3-61.9,56.3-61.6,56.2z"
		/>
	<path id="path19276-7" d="M-44.6,75.6c1.4-0.7-0.7-3.6,0.9-4c0.9-0.3,3.3-0.7,3.7,0.3c0.4,1.1,0.7,3-0.3,4
		C-41.8,77.5-43.3,75.7-44.6,75.6z"/>
	<path id="path19203-4" d="M58.2,106.6c3,0,5.9-0.4,8.7-1.1c4.1-1,8.1-2.7,11.8-5.1c2.1-1.6,4.3-3.3,6.1-5.3
		c2.7-2.7,5.1-5.6,7.1-8.9c1.6-2.6,2.7-5.4,3.6-8.4c1.4-4.6,2.3-9.4,2.6-14.3c0.3-3.6,0.1-7.1,0-10.7c-0.3-4.7-0.9-9.6-2.3-14
		c-1.4-4.9-3.7-9.4-6.6-13.4c-2.6-3.4-5.6-6.6-9.1-8.9c-2.9-1.9-5.9-3.1-9.1-4.1c-9.4-2.7-19.8-1.3-28.4,3.7
		c-6,3.6-11.1,9-13.6,15.7c-2,5.1-2.3,10.8-0.6,16c1.3,3.9,3.9,7.1,6.7,9.7c2.7,2.4,5.7,4.3,9,5.4c3.6,1.3,7.3,1.9,11.1,1.6
		c5-0.4,9.8-2.3,14.7-3.6c0.7-0.1,1.6-0.4,2.3-0.4c0.6-0.1,1.1-0.1,1.7,0c0.3,0.1,0.6,0.1,0.7,0.4c0.3,0.1,0.4,0.4,0.6,0.7
		c0.1,0.4,0.1,1,0.1,1.4c-0.1,4-0.4,8-1.1,11.8c-0.9,4.7-2.3,9.4-4,13.8c-0.6,1.4-1.3,3-2.1,4.3c-0.9,1.3-2,2.6-3.4,3.3
		c-0.7,0.4-1.4,0.7-2.1,0.9c-0.7,0.3-1.4,0.4-2.1,0.4c-0.9,0-1.7-0.3-2.6-0.4c-0.3,0-0.6,0-0.9-0.1c-0.3,0-0.6-0.1-0.7-0.4
		C56.2,96.4,56,96.2,56,96c0-0.3-0.1-0.4-0.1-0.7c-0.1-0.9-0.1-1.6,0.3-2.3c0.3-0.6,0.7-1,1-1.6c0.4-0.7,0.6-1.4,0.9-2.3
		c0.3-1.6,0.6-3,0.6-4.6c0-2-0.1-4-1-5.9c-1-2.3-2.7-4.3-4.7-5.7c-1.6-1.1-3.4-2-5.3-2.3c-1.9-0.3-3.9-0.3-5.7,0.4
		c-1.6,0.6-2.9,1.6-4.3,2.4c-1,0.7-2,1.3-2.9,2.3c-0.7,0.9-1.3,1.7-1.7,2.7c-0.7,2.1-1,4.3-1.1,6.3c-0.1,1.9-0.1,3.9,0.4,5.7
		c0.4,1.6,1.3,3,2.1,4.3c1,1.7,2.1,3.3,3.7,4.7s3.6,2.4,5.4,3.3c2.1,1,4.1,1.9,6.4,2.4C52.6,106.1,55.3,106.6,58.2,106.6z M60,56.5
		c-1,0-1.9-0.3-2.9-0.7c-1.9-0.9-3-2.6-4-4.4c-1.6-3-2.3-6.4-2.6-9.8c-0.3-3.3-0.3-6.7,0.3-10c0.4-3.3,1.3-6.6,3.3-9.3
		c1.1-1.6,2.7-2.7,4.4-3.4c1.4-0.6,3-0.7,4.4-0.6c1.4,0.3,2.9,0.9,4.1,1.9c1,0.9,1.9,2,2.4,3.3c1,1.9,1.7,3.9,2.3,6
		c0.9,3.3,1.1,6.6,1,9.8c-0.3,3-1,6-1.9,9c-0.4,1.1-0.7,2.3-1.3,3.4c-0.6,1-1.3,2-2.1,2.7c-1.3,1-2.9,1.4-4.4,1.7
		C62,56.5,61,56.5,60,56.5z"/>
</g>
</svg>
