<?xml version="1.0" encoding="utf-8"?>
<!-- Generator: Adobe Illustrator 26.0.1, SVG Export Plug-In . SVG Version: 6.00 Build 0)  -->
<svg version="1.1"
	 id="svg3019" inkscape:version="0.48.5 r10040" sodipodi:docname="bécarre.svg" xmlns:cc="http://creativecommons.org/ns#" xmlns:dc="http://purl.org/dc/elements/1.1/" xmlns:inkscape="http://www.inkscape.org/namespaces/inkscape" xmlns:rdf="http://www.w3.org/1999/02/22-rdf-syntax-ns#" xmlns:sodipodi="http://sodipodi.sourceforge.net/DTD/sodipodi-0.dtd" xmlns:svg="http://www.w3.org/2000/svg"
	 xmlns="http://www.w3.org/2000/svg" xmlns:xlink="http://www.w3.org/1999/xlink" x="0px" y="0px" viewBox="0 0 26.6 107.6"
	 style="enable-background:new 0 0 26.6 107.6;" xml:space="preserve">
<sodipodi:namedview  bordercolor="#666666" borderopacity="1" fit-margin-bottom="0" fit-margin-left="0" fit-margin-right="0" fit-margin-top="0" gridtolerance="10" guidetolerance="10" id="namedview3109" inkscape:current-layer="svg3019" inkscape:cx="48.799323" inkscape:cy="-33.26207" inkscape:pageopacity="0" inkscape:pageshadow="2" inkscape:window-height="1018" inkscape:window-maximized="1" inkscape:window-width="1920" inkscape:window-x="-8" inkscape:window-y="-8" inkscape:zoom="5.6568542" objecttolerance="10" pagecolor="#ffffff" showgrid="false">
	</sodipodi:namedview>
<path id="path3037" inkscape:connector-curvature="0" d="M20.9,98.5c0,1.4-0.8,2.7-1.7,2.7s-1.8-1.3-1.8-2.7V77.7l-8,4.4v22.7
	c0,1.4-0.9,2.7-1.8,2.7s-1.7-1.3-1.7-2.7V84.1l-3.1,1.7c-0.2,0.1-0.5,0.1-0.7,0.1c-1.1,0-1.9-1.3-1.9-2.9v-8.6
	c0-1.1,0.5-2.3,1.3-2.7l4.4-2.3V46.5l-3.1,1.6c-0.2,0.1-0.5,0.1-0.7,0.1c-1.1,0-1.9-1.3-1.9-2.9v-8.6c0-1.1,0.5-2.2,1.3-2.6l4.4-2.4
	V9c0-1.4,0.8-2.7,1.7-2.7S9.3,7.6,9.3,9v20.8l8-4.4V2.7c0-1.4,0.9-2.7,1.8-2.7s1.7,1.3,1.7,2.7v20.8l3.1-1.7
	c0.2-0.1,0.5-0.1,0.7-0.1c1.1,0,1.9,1.3,1.9,2.9v8.6c0,1.1-0.5,2.3-1.3,2.7l-4.4,2.3v22.9l3.1-1.6c0.2-0.1,0.5-0.1,0.7-0.1
	c1.1,0,1.9,1.3,1.9,2.9v8.6c0,1.1-0.5,2.2-1.3,2.6l-4.4,2.4V98.5z M9.3,44.5v22.9l8-4.3V40.2L9.3,44.5z"/>
</svg>
