<?xml version="1.0" encoding="utf-8"?>
<!-- Generator: Adobe Illustrator 26.0.1, SVG Export Plug-In . SVG Version: 6.00 Build 0)  -->
<svg version="1.1"
	 id="svg3019" inkscape:version="0.48.5 r10040" sodipodi:docname="bécarre-bémol.svg" xmlns:cc="http://creativecommons.org/ns#" xmlns:dc="http://purl.org/dc/elements/1.1/" xmlns:inkscape="http://www.inkscape.org/namespaces/inkscape" xmlns:rdf="http://www.w3.org/1999/02/22-rdf-syntax-ns#" xmlns:sodipodi="http://sodipodi.sourceforge.net/DTD/sodipodi-0.dtd" xmlns:svg="http://www.w3.org/2000/svg"
	 xmlns="http://www.w3.org/2000/svg" xmlns:xlink="http://www.w3.org/1999/xlink" x="0px" y="0px" viewBox="0 0 5.7 107.6"
	 style="enable-background:new 0 0 5.7 107.6;" xml:space="preserve">
<sodipodi:namedview  bordercolor="#666666" borderopacity="1" fit-margin-bottom="0" fit-margin-left="0" fit-margin-right="0" fit-margin-top="0" gridtolerance="10" guidetolerance="10" id="namedview3109" inkscape:current-layer="svg3019" inkscape:cx="55.801797" inkscape:cy="-33.087705" inkscape:pageopacity="0" inkscape:pageshadow="2" inkscape:window-height="1018" inkscape:window-maximized="1" inkscape:window-width="1920" inkscape:window-x="-8" inkscape:window-y="-8" inkscape:zoom="5.6568542" objecttolerance="10" pagecolor="#ffffff" showgrid="false">
	</sodipodi:namedview>
<path id="path3089" inkscape:connector-curvature="0" d="M-4.1,72.6l-0.1,11.3v1.9c0,3.8,0.1,7.5,0.5,11.3
	C1.5,90.6,7.1,83.4,7.1,73.3c0-5.7-1.6-11.5-5-11.5C-1.6,61.8-4,67-4.1,72.6z M-9.1,103.3L-10.5,1.4C-9.5,0.5-8.4,0-7.3,0
	s2.2,0.5,3.2,1.4L-5,60.5c2.9-3.6,6.8-5.8,10.7-5.8c6.1,0,10.4,8.2,10.4,17.5c0,13.7-10.1,20-17.2,29c-1.8,2.2-2.8,6.5-5.3,6.5
	C-7.9,107.6-9.1,105.7-9.1,103.3z"/>
</svg>
