<?xml version="1.0" encoding="utf-8"?>
<!-- Generator: Adobe Illustrator 26.0.1, SVG Export Plug-In . SVG Version: 6.00 Build 0)  -->
<svg version="1.1"
	 id="svg2" inkscape:version="0.43" sodipodi:docname="D:\Dokumenty\Wikipedie\images\svg\Bass clef.svg" sodipodi:version="0.34" xmlns:cc="http://web.resource.org/cc/" xmlns:dc="http://purl.org/dc/elements/1.1/" xmlns:inkscape="http://www.inkscape.org/namespaces/inkscape" xmlns:rdf="http://www.w3.org/1999/02/22-rdf-syntax-ns#" xmlns:sodipodi="http://sodipodi.sourceforge.net/DTD/sodipodi-0.dtd" xmlns:svg="http://www.w3.org/2000/svg"
	 xmlns="http://www.w3.org/2000/svg" xmlns:xlink="http://www.w3.org/1999/xlink" x="0px" y="0px" viewBox="0 0 317.5 374.2"
	 style="enable-background:new 0 0 317.5 374.2;" xml:space="preserve">
<style type="text/css">
	.st0{fill:none;stroke:#131516;stroke-width:6.1674;stroke-miterlimit:10;}
	.st1{fill-rule:evenodd;clip-rule:evenodd;fill:#131516;stroke:#131516;stroke-width:0.4405;stroke-miterlimit:10;}
</style>
<sodipodi:namedview  bordercolor="#666666" borderopacity="1.0" id="base" inkscape:current-layer="svg2" inkscape:cx="372.04742" inkscape:cy="526.18048" inkscape:pageopacity="0.0" inkscape:pageshadow="2" inkscape:window-height="540" inkscape:window-width="767" inkscape:window-x="611" inkscape:window-y="285" inkscape:zoom="0.35539137" pagecolor="#ffffff">
	</sodipodi:namedview>
<g id="Layer_1" transform="matrix(4.588483,0,0,4.575039,-4898.431,-28736.72)">
	<path id="path9_00000103226405944210628750000008560228245859162293_" class="st0" d="M1133.7,6322.1"/>
	<path id="path9_00000045615563794525769590000013413309354612014005_" class="st0" d="M1070.6,6322.1"/>
	<path id="path11_00000093890264000170551650000001189067889543281842_" class="st0" d="M1070.6,6359.9"/>
	<path id="path13_00000095341070938273059240000013182157790609771709_" class="st0" d="M1070.6,6341"/>
	<path id="path15_00000134947578555912207280000016418254668390527417_" class="st0" d="M1133.7,6303.2"/>
	<path id="path15_00000176024147454449752230000008942788340964475310_" class="st0" d="M1070.6,6303.2"/>
	<path id="path17_00000166646634496863438480000009928943094070002613_" class="st0" d="M1133.7,6284.3"/>
	<path id="path17_00000077325228805891755180000009381020118226914747_" class="st0" d="M1070.6,6284.3"/>
	<path id="path19" class="st1" d="M1078.8,6344c5.1-3.4,8.8-6,11.3-7.8c2.4-1.8,5-4,7.6-6.6c2.6-2.6,4.8-5.6,6.6-8.9
		c1.4-2.4,2.6-5.2,3.6-8.4c1-3.2,1.5-6.2,1.6-9.2c0-2.7-0.4-5.3-1.1-7.7c-0.7-2.5-1.9-4.5-3.6-6.1c-1.7-1.6-4-2.4-6.8-2.4
		c-2.7,0-5.2,0.5-7.6,1.6c-2.3,1.1-4,2.8-4.9,5.2c0,0.2-0.1,0.5-0.3,0.9c0.1,0.5,0.3,0.9,0.8,1.2c0.5,0.3,0.9,0.4,1.3,0.4
		c0.2,0,0.7-0.1,1.6-0.3c0.9-0.2,1.6-0.3,2.1-0.3c1.7,0,3.2,0.6,4.6,1.8c1.3,1.2,2,2.6,2,4.3c0,1.2-0.4,2.4-1,3.4
		c-0.7,1.1-1.6,1.9-2.8,2.5c-1.2,0.6-2.5,0.9-3.9,0.9c-2.6,0-4.7-0.8-6.5-2.3c-1.8-1.6-2.7-3.6-2.7-6.1c0-3.2,1-6,2.9-8.4
		c2-2.4,4.5-4.1,7.6-5.3c3-1.2,6.1-1.8,9.2-1.8c3.4,0,6.7,0.9,9.7,2.6c3.1,1.7,5.5,4.1,7.3,7.1c1.8,3,2.7,6.2,2.7,9.7
		c0,6.1-2,11.8-6.1,17.1c-4.1,5.3-9.2,9.9-15.2,13.8c-4,2.7-10.6,6.2-19.6,10.8L1078.8,6344z M1123.3,6294.5c0-1.2,0.4-2.1,1.2-2.9
		c0.8-0.8,1.8-1.2,3-1.2c1,0,2,0.4,2.8,1.3c0.9,0.8,1.3,1.8,1.3,2.9c0,1.2-0.4,2.1-1.3,2.9c-0.9,0.8-1.9,1.2-3,1.2
		c-1.2,0-2.1-0.4-2.9-1.2C1123.6,6296.7,1123.3,6295.7,1123.3,6294.5z M1123.3,6311.3c0-1.2,0.4-2.1,1.2-2.9c0.8-0.8,1.8-1.2,3-1.2
		c1,0,2,0.4,2.8,1.3c0.8,0.9,1.3,1.8,1.3,2.8c0,1.2-0.4,2.2-1.2,3c-0.8,0.8-1.8,1.2-2.9,1.2c-1.2,0-2.2-0.4-3-1.2
		C1123.7,6313.6,1123.3,6312.6,1123.3,6311.3z"/>
</g>
</svg>
