<?xml version="1.0" encoding="utf-8"?>
<!-- Generator: Adobe Illustrator 26.0.1, SVG Export Plug-In . SVG Version: 6.00 Build 0)  -->
<svg version="1.1" id="svg1622" xmlns:svg="http://www.w3.org/2000/svg"
	 xmlns="http://www.w3.org/2000/svg" xmlns:xlink="http://www.w3.org/1999/xlink" x="0px" y="0px" viewBox="0 0 13 41"
	 style="enable-background:new 0 0 13 41;" xml:space="preserve">
<style type="text/css">
	.st0{fill:none;stroke:#000000;stroke-width:1.5;}
	.st1{fill-rule:evenodd;clip-rule:evenodd;}
</style>
<g id="g16506" transform="translate(-519.7849,-288.4558)">
	<path id="path16455_00000008835205961448144570000006987408242233972375_" class="st0" d="M521,287.2"/>
	<path id="path16455_00000154410937895187477470000005079419865995283606_" class="st0" d="M521,328.3"/>
	<path id="path16457" class="st1" d="M520.2,294.9c-0.7,6.3,5.5,8.6,8.6,11.5c2.9,2.8,3.9,6,3.8,9c0,0.8-0.2,4.3-3,7.8
		c3.7-8.7,0.2-12.3-3.1-15.1C522.4,304.9,519.5,301.7,520.2,294.9z"/>
	<path id="path16462" class="st1" d="M520.1,300.9c-0.6,6.3,5.2,8.6,8.1,11.5c2.7,2.8,3.7,6,3.5,9c0,0.8-0.2,4.3-2.8,7.8
		c3.4-8.7,0.2-12.3-2.9-15.1C522.4,310.7,519.6,307.5,520.1,300.9z"/>
	<path id="path16504" class="st1" d="M520.3,288.5c-0.7,6.3,5.2,8.1,8.3,11c2.9,2.8,3.9,6,3.8,9c0,0.8-0.2,4.3-3,7.8
		c3.7-8.7,0.2-12.3-3.1-15.1C522.4,297.8,519.7,295.1,520.3,288.5z"/>
</g>
</svg>
