<?xml version="1.0" encoding="utf-8"?>
<!-- Generator: Adobe Illustrator 26.0.1, SVG Export Plug-In . SVG Version: 6.00 Build 0)  -->
<svg version="1.1"
	 id="svg4518" xmlns:cc="http://creativecommons.org/ns#" xmlns:dc="http://purl.org/dc/elements/1.1/" xmlns:rdf="http://www.w3.org/1999/02/22-rdf-syntax-ns#" xmlns:svg="http://www.w3.org/2000/svg"
	 xmlns="http://www.w3.org/2000/svg" xmlns:xlink="http://www.w3.org/1999/xlink" x="0px" y="0px" viewBox="0 0 6.5 4.4"
	 style="enable-background:new 0 0 6.5 4.4;" xml:space="preserve">
<style type="text/css">
	.st0{stroke:#000000;stroke-width:0.2791;}
</style>
<g id="g15918" transform="translate(2.8669488,-0.73565987)">
	<g id="g2900-6-7" transform="matrix(1.3435253,0.13264328,-0.13079403,1.5162963,-162.0961,-803.16522)">
		<path id="path2906-1-7" class="st0" d="M172.9,516c-0.1,0.3-0.4,0.5-0.7,0.8c-0.6,0.4-1.4,0.7-2.1,0.8c-0.2,0-0.6,0-0.6-0.2
			c0-0.3,0.2-0.5,0.4-0.7c0.5-0.4,1.2-0.7,1.8-0.9c0.3-0.1,0.7-0.2,1.1,0C172.9,515.8,173,515.9,172.9,516L172.9,516z M172.1,515.3
			c-0.9-0.1-1.7,0.3-2.3,0.8c-0.4,0.4-0.7,0.9-0.5,1.4c0.2,0.4,0.7,0.6,1.1,0.6c0.8,0.1,1.6-0.2,2.2-0.7c0.4-0.3,0.8-0.9,0.6-1.4
			c-0.1-0.4-0.5-0.6-1-0.7C172.2,515.3,172.2,515.3,172.1,515.3L172.1,515.3z"/>
	</g>
</g>
</svg>
