<?xml version="1.0" encoding="utf-8"?>
<!-- Generator: Adobe Illustrator 26.0.1, SVG Export Plug-In . SVG Version: 6.00 Build 0)  -->
<svg version="1.1" id="svg1437" xmlns:svg="http://www.w3.org/2000/svg"
	 xmlns="http://www.w3.org/2000/svg" xmlns:xlink="http://www.w3.org/1999/xlink" x="0px" y="0px" viewBox="0 0 6.5 4.4"
	 style="enable-background:new 0 0 6.5 4.4;" xml:space="preserve">
<style type="text/css">
	.st0{opacity:0.9;enable-background:new    ;}
</style>
<path id="path3937" class="st0" d="M3,0C1.3,0.1,0,1,0,2.2s1.5,2.2,3.2,2.2s3.3-1,3.3-2.2S5,0,3.3,0C3.1,0,3,0,3,0z M2.4,0.4
	c0.4,0,1,0.2,1.5,0.7c0.7,0.8,0.9,1.8,0.6,2.4l0,0C4.1,4.1,3.2,3.9,2.4,3.1C1.7,2.3,1.5,1.2,1.9,0.7C2,0.5,2.2,0.4,2.4,0.4z"/>
</svg>
