<?xml version="1.0" encoding="utf-8"?>
<!-- Generator: Adobe Illustrator 26.0.1, SVG Export Plug-In . SVG Version: 6.00 Build 0)  -->
<svg version="1.1" id="svg1361" xmlns:svg="http://www.w3.org/2000/svg"
	 xmlns="http://www.w3.org/2000/svg" xmlns:xlink="http://www.w3.org/1999/xlink" x="0px" y="0px" viewBox="0 0 15 27"
	 style="enable-background:new 0 0 15 27;" xml:space="preserve">
<g id="layer1">
	<g id="g3008" transform="translate(-175.719,-572.005)">
		<path id="path3010" d="M187.6,592.6c1.1,0.5,1,2.4-0.4,1.5c-1-1.2-2.9-2.3-4.3-1c-1.2,1.1-0.8,3,0.5,3.8c0.9,0.2,1.6,1.7,0.1,1.2
			c-2.2-0.7-4.5-2.6-4.3-5.1c0-1.7,1.7-2.8,3.3-2.6c0.6-0.2,2.4,0.7,2.3,0.3c-1.1-1.6-2.3-3.1-3.2-4.8c-0.3-1,0.4-2,0.7-2.9
			c0.7-1.7,1.4-3.3,2-5c0.1-1-0.9-1.8-1.3-2.6c-0.6-0.9-1.3-1.7-1.7-2.6c0-1.2,1.3,0.1,1.6,0.6c1.5,1.8,3.1,3.5,4.5,5.3
			c1,1.2,0.1,2.6-0.4,3.7c-0.7,1.8-1.6,3.4-2.1,5.3c-0.1,1.5,1,2.7,1.7,4C187,591.9,187.3,592.3,187.6,592.6z"/>
	</g>
</g>
</svg>
