<?xml version="1.0" encoding="UTF-8" standalone="no"?>
<!-- Created with Inkscape (http://www.inkscape.org/) -->
<svg
   xmlns:svg="http://www.w3.org/2000/svg"
   xmlns="http://www.w3.org/2000/svg"
   version="1.0"
   width="14.566"
   height="45.209999"
   id="svg1600">
  <defs
     id="defs1603" />
  <g
     transform="translate(-371.6918,-254.0553)"
     id="g16526">
    <path
       d="M 376.11189,255.30417 C 372.71605,257.12414 370.90661,260.41872 372.01967,262.89713 C 373.20693,265.54077 377.28668,266.28685 381.12625,264.5625 C 384.96581,262.83814 387.11841,259.2931 385.93115,256.64947 C 384.74388,254.00583 380.66414,253.25975 376.82457,254.9841 C 376.5846,255.09187 376.33829,255.18284 376.11189,255.30417 z "
       style="opacity:0.9;fill:#000000;fill-opacity:1;fill-rule:evenodd;stroke:none;stroke-width:0.2;stroke-miterlimit:4;stroke-dashoffset:0;stroke-opacity:1"
       id="path16515" />
    <path
       d="M 372.47939,261.38756 L 372.47939,297.72513"
       style="fill:none;fill-opacity:0.75;fill-rule:evenodd;stroke:#000000;stroke-width:1.5;stroke-linecap:butt;stroke-linejoin:miter;stroke-miterlimit:4;stroke-dasharray:none;stroke-opacity:1"
       id="path16517" />
    <path
       d="M 372.22474,299.26529 C 371.66224,292.95279 377.06729,290.69155 379.72474,287.76529 C 382.2507,284.98382 383.17341,281.77557 383.07022,278.76969 C 383.04267,277.96712 382.82479,274.48958 380.45577,271.00297 C 383.62369,279.75008 380.67424,283.26103 377.79281,286.05455 C 374.30287,289.43801 371.70669,292.62673 372.22474,299.26529 z "
       style="fill:#000000;fill-opacity:1;fill-rule:evenodd;stroke:none;stroke-width:1px;stroke-linecap:butt;stroke-linejoin:miter;stroke-opacity:1"
       id="path16519" />
    <path
       d="M 372.10639,292.24334 C 371.54389,285.93084 376.94894,283.6696 379.60639,280.74334 C 382.13235,277.96187 383.05506,274.75362 382.95187,271.74774 C 382.92432,270.94517 382.70644,267.46763 380.33742,263.98102 C 383.50534,272.72813 380.55589,276.23908 377.67446,279.0326 C 374.18452,282.41606 371.58834,285.60478 372.10639,292.24334 z "
       style="fill:#000000;fill-opacity:1;fill-rule:evenodd;stroke:none;stroke-width:1px;stroke-linecap:butt;stroke-linejoin:miter;stroke-opacity:1"
       id="path16524" />
  </g>
</svg>
