<?xml version="1.0" encoding="utf-8"?>
<!-- Generator: Adobe Illustrator 26.0.1, SVG Export Plug-In . SVG Version: 6.00 Build 0)  -->
<svg version="1.1" id="Layer_1" xmlns="http://www.w3.org/2000/svg" xmlns:xlink="http://www.w3.org/1999/xlink" x="0px" y="0px"
	 viewBox="0 0 115 115" style="enable-background:new 0 0 115 115;" xml:space="preserve">
<style type="text/css">
	.st0{stroke:#000000;stroke-miterlimit:10;}
</style>
<path class="st0" d="M37.3,18.1c-3.9,5.7,3.6,8.3,3.6,8.3s16.3,8.9,3.8,18.9c-12,9.6-20.1-0.1-20.1-0.1S12.3,26.7,34,15.9
	c15.2-7.6,36.4-4.5,47.1,0.9c7.5,3.8,19.3,16.2,8.8,31.1c-2.4,3.5-2.6,4.3-16,11.1c-11.8,5.9-20.3,7.1-25.4,11.8
	c-0.5,0.5-1.3,1.6-1.5,2.3c-0.2,0.6-0.1,1.6,0.5,2.4c0.5,0.7,1.3,1.1,1.8,1.2c0.6,0.1,1.7,0.1,2.3,0c6.3-0.7,9.7-0.1,24.3,6.9
	c14.6,7,14.3-10.7,14.3-10.7l5.1-0.3c0,0,1.4,35.1-27.1,30.6c-16-2.5-15.3-13.8-28.3-14.3c-4.3-0.2-13,1.8-13.5,10.7l-6.4,0.5
	c0,0-3.3-14,12.8-23.2s28.1-19.2,28.1-19.2S80.2,37,65.5,19.6c-1.2-1.5-6.2-8.5-20.8-5.1C40.9,15.4,38.8,15.9,37.3,18.1z"/>
</svg>
