<?xml version="1.0" encoding="utf-8"?>
<!-- Generator: Adobe Illustrator 26.0.1, SVG Export Plug-In . SVG Version: 6.00 Build 0)  -->
<svg version="1.1" id="Layer_1" xmlns="http://www.w3.org/2000/svg" xmlns:xlink="http://www.w3.org/1999/xlink" x="0px" y="0px"
	 viewBox="0 0 115 115" style="enable-background:new 0 0 115 115;" xml:space="preserve">
<style type="text/css">
	.st0{fill:#010101;stroke:#010101;stroke-width:0.25;stroke-miterlimit:10;}
</style>
<path class="st0" d="M43.3,54.8c0,0,26.7,1.6,27.9-17.5S59.9,13.9,59.9,13.9s-5.7-3.7-14.3,0s-3.7,8.1-3.7,8.1S53.4,35.5,42.3,41
	s-15.4,0.3-15.4,0.3S12,24.9,36.8,13.9s44.7,2.3,44.7,2.3s20.9,14.1,1.2,32.5c0,0-2.9,2.4-6.7,4.6c0,0,14.3,9,17.3,23.9
	c0,0,4.8,15-15.6,24.4c0,0-7.6,4.4-27.6,3.7c0,0-22.3,0.2-27.7-15.2s8.1-17.7,8.1-17.7s17-1.2,15,13.6c0,0,0,1.8-2.7,8
	s5.7,8.3,5.7,8.3S67,105.5,71.4,91s-3.4-23.5-3.4-23.5s-8.8-11.3-25.1-9L43.3,54.8z"/>
</svg>
