<?xml version="1.0" encoding="utf-8"?>
<!-- Generator: Adobe Illustrator 26.0.1, SVG Export Plug-In . SVG Version: 6.00 Build 0)  -->
<svg version="1.1"
	 id="svg3332" inkscape:output_extension="org.inkscape.output.svg.inkscape" inkscape:version="0.46" sodipodi:docname="32nd note.svg" sodipodi:version="0.32" xmlns:cc="http://creativecommons.org/ns#" xmlns:dc="http://purl.org/dc/elements/1.1/" xmlns:inkscape="http://www.inkscape.org/namespaces/inkscape" xmlns:rdf="http://www.w3.org/1999/02/22-rdf-syntax-ns#" xmlns:sodipodi="http://sodipodi.sourceforge.net/DTD/sodipodi-0.dtd" xmlns:svg="http://www.w3.org/2000/svg"
	 xmlns="http://www.w3.org/2000/svg" xmlns:xlink="http://www.w3.org/1999/xlink" x="0px" y="0px" viewBox="0 0 20 20"
	 style="enable-background:new 0 0 20 20;" xml:space="preserve">
<defs>
	
		<inkscape:perspective  id="perspective3340" inkscape:persp3d-origin="372.04724 : 350.78739 : 1" inkscape:vp_x="0 : 526.18109 : 1" inkscape:vp_y="0 : 1000 : 0" inkscape:vp_z="744.09448 : 526.18109 : 1" sodipodi:type="inkscape:persp3d">
		</inkscape:perspective>
</defs>
<sodipodi:namedview  bordercolor="#666666" borderopacity="1.0" gridtolerance="10000" guidetolerance="10" id="base" inkscape:current-layer="layer1" inkscape:cx="18.571429" inkscape:cy="48.571429" inkscape:document-units="px" inkscape:pageopacity="0.0" inkscape:pageshadow="2" inkscape:window-height="669" inkscape:window-width="788" inkscape:window-x="325" inkscape:window-y="192" inkscape:zoom="3.137037" objecttolerance="10" pagecolor="#ffffff" showgrid="false">
	</sodipodi:namedview>
<g id="layer1" transform="translate(-429.54212,-552.81875)" inkscape:groupmode="layer" inkscape:label="Layer 1">
	<g id="g3327" transform="matrix(6.9560399,0,0,6.9560399,151.13103,397.00323)">
		<path id="text835" d="M41.8,23.3v0.8h0h0V24v-0.1l0,0l0,0c0.1,0.1,0.1,0.1,0.2,0.2c0,0.1,0.1,0.1,0.1,0.2c0,0.1,0,0.1,0,0.2
			c0,0.1,0,0.1-0.1,0.2c0,0,0,0,0,0c0,0,0,0,0,0c0,0,0,0,0,0c0,0,0,0,0,0c0,0,0,0,0,0c0,0,0,0,0,0c0,0,0,0,0-0.1c0,0,0-0.1,0-0.1
			c0-0.1,0-0.1,0-0.2c0-0.1,0-0.1,0-0.1c0,0,0,0,0-0.1c0,0,0,0,0-0.1l0,0l0,0c0-0.1,0-0.1,0-0.2c0-0.1,0-0.1-0.1-0.2l0,0l0,0
			c0,0,0,0,0,0c0,0,0,0,0,0c0,0,0,0,0,0c0,0,0,0,0,0c0,0,0,0,0-0.1c0,0,0,0,0-0.1c0-0.1,0-0.1-0.1-0.2c0,0,0,0,0-0.1
			c0,0,0-0.1-0.1-0.1L42,22.9c-0.1-0.1-0.1-0.2-0.1-0.2c0-0.1,0-0.1,0-0.2v0h0h0V23.3L41.8,23.3z M41.9,23c0.1,0.1,0.1,0.1,0.1,0.2
			c0,0.1,0.1,0.1,0.1,0.2c0,0,0,0.1,0,0.1s0,0.1,0,0.1v0l0-0.1c0,0,0,0,0,0c0,0,0,0,0,0c-0.1-0.1-0.1-0.1-0.1-0.2
			C41.9,23.2,41.9,23.1,41.9,23C41.9,23,41.9,23,41.9,23C41.9,23,41.9,23,41.9,23C41.9,23,41.9,23,41.9,23C41.9,23,41.9,23,41.9,23
			L41.9,23z M42,23.6C42,23.6,42,23.6,42,23.6c0.1,0.1,0.1,0.1,0.1,0.1c0,0.1,0.1,0.1,0.1,0.2c0,0.1,0,0.1,0,0.2c0,0,0,0,0,0
			c0,0,0,0,0,0c0,0,0,0,0,0c0,0,0,0,0,0c0,0,0,0,0,0C42,23.9,42,23.8,42,23.8c0,0,0-0.1-0.1-0.1c0,0,0-0.1,0-0.1c0,0,0-0.1,0-0.1v0
			L42,23.6C41.9,23.5,41.9,23.5,42,23.6C42,23.6,42,23.6,42,23.6L42,23.6z"/>
		<path id="rect841" d="M41.8,22.5L41.8,22.5C41.8,22.5,41.9,22.5,41.8,22.5l0,2.3c0,0,0,0,0,0h0c0,0,0,0,0,0L41.8,22.5
			C41.8,22.5,41.8,22.5,41.8,22.5z"/>
		<path id="text845" d="M41.5,24.6c-0.1,0-0.2,0-0.2,0.1s-0.1,0.1-0.1,0.2c0,0,0,0,0,0.1c0,0,0,0,0,0.1c0,0,0,0,0,0c0,0,0,0,0,0
			c0,0.1,0,0.1,0.1,0.1c0,0,0.1,0,0.2,0.1c0.1,0,0.2,0,0.3-0.1s0.1-0.1,0.2-0.2c0,0,0,0,0,0s0,0,0,0c0,0,0,0,0,0c0,0,0,0,0,0
			c0,0,0,0,0-0.1s0,0,0,0c0,0-0.1-0.1-0.1-0.1C41.6,24.6,41.6,24.6,41.5,24.6C41.6,24.6,41.5,24.6,41.5,24.6L41.5,24.6z"/>
	</g>
</g>
</svg>
