<?xml version="1.0" encoding="utf-8"?>
<!-- Generator: Adobe Illustrator 26.0.1, SVG Export Plug-In . SVG Version: 6.00 Build 0)  -->
<svg version="1.1" id="Layer_1" xmlns="http://www.w3.org/2000/svg" xmlns:xlink="http://www.w3.org/1999/xlink" x="0px" y="0px"
	 viewBox="0 0 115 115" style="enable-background:new 0 0 115 115;" xml:space="preserve">
<style type="text/css">
	.st0{fill:#010101;stroke:#010101;stroke-width:0.25;stroke-miterlimit:10;}
</style>
<path class="st0" d="M45.7,14.8c0,0,0.4-3.3,2-3.9c1.5-0.6,2.2-0.5,2.2-0.5l25.7-0.4c0,0-8.8,17.7-49.3,61.8h34.9l0.5-8.4
	c0,0,0-2.5-3.6-5l25.3-29.6l0.7,43h11.5v4.8H84.1v12.9c0,0,0.7,9.5,11.7,8.6v6.8l-44.8,0.2v-5.4c0,0,12-2,11.2-9.8v-5
	c0,0,0.7-7.7-8.4-7.9l-33.8,0.5c0,0-1.4-1.9,0-4.1C27.1,62.4,44.5,43,45.7,14.8z"/>
</svg>
