<?xml version="1.0" encoding="utf-8"?>
<!-- Generator: Adobe Illustrator 26.0.1, SVG Export Plug-In . SVG Version: 6.00 Build 0)  -->
<svg version="1.1" id="svg3527" xmlns:svg="http://www.w3.org/2000/svg"
	 xmlns="http://www.w3.org/2000/svg" xmlns:xlink="http://www.w3.org/1999/xlink" x="0px" y="0px" viewBox="0 0 115 115"
	 style="enable-background:new 0 0 115 115;" xml:space="preserve">
<g id="layer1" transform="translate(-334,-510.86218)">
	<path id="path3703" d="M379.5,619.1c-13.6-2.7-22.8-9.1-26.5-18.6c-1.4-3.6-1.9-9.9-1.1-14c1-5,4.1-10.2,8.1-13.3
		c1.8-1.4,7.2-4.2,8.2-4.2c0.4,0-0.4-0.6-1.7-1.4c-5.8-3.3-10.4-9.8-11.8-16.6c-1-4.7-0.6-11.6,0.9-15.6c2.9-7.6,8.7-12.9,17.6-16.1
		c5.4-1.9,10.4-2.6,17.7-2.6c18.2,0,31.7,6.3,36,16.7c1.3,3.3,1.7,10.2,0.7,14.1c-1.5,6.1-6.1,13-11.3,16.9l-1.9,1.4l3.1,1.6
		c4,2.1,9.1,7.1,10.7,10.5c2.1,4.3,2.7,8,2.1,13.2c-1.3,13.2-11.2,23-27.4,27.4C398,620.1,385.5,620.3,379.5,619.1z M397.3,611.2
		c8.2-2,13-6.5,13-12.3c0-6.2-4.6-11.2-15.6-17.1c-4.9-2.6-16.6-8.1-17.3-8.1c-1,0-5.3,3.3-7.2,5.4c-5.5,6.4-6.3,16.8-1.6,23.6
		c2.6,3.8,8.1,7.2,13.5,8.6C385.7,612.1,393.8,612.1,397.3,611.2z M403.9,556.8c5.1-3.3,8-7.8,8.8-13.9c1.4-10.3-3.4-17-14-19.1
		c-4.9-1-14.5-0.7-17.9,0.6c-5.7,2.2-8.1,5.6-8.1,11.3s2.8,10.2,8.8,14.4c1.8,1.2,4.9,3,7,4c4.4,2,12.1,4.6,12.7,4.3
		C401.6,558.3,402.8,557.5,403.9,556.8z M468.4,426h12.9"/>
</g>
</svg>
