<?xml version="1.0" encoding="UTF-8" standalone="no"?>
<!-- Created with Inkscape (http://www.inkscape.org/) -->
<svg
   xmlns:svg="http://www.w3.org/2000/svg"
   xmlns="http://www.w3.org/2000/svg"
   version="1.0"
   width="14.566"
   height="41.919998"
   id="svg1552">
  <defs
     id="defs1555" />
  <g
     transform="translate(-461.4671,-174.402)"
     id="g12024">
    <path
       d="M 465.88715,175.65106 C 462.49131,177.47103 460.68187,180.76561 461.79493,183.24402 C 462.98219,185.88766 467.06194,186.63374 470.90151,184.90939 C 474.74107,183.18503 476.89367,179.63999 475.70641,176.99636 C 474.51914,174.35272 470.4394,173.60664 466.59983,175.33099 C 466.35986,175.43876 466.11355,175.52973 465.88715,175.65106 z "
       style="opacity:0.9;fill:#000000;fill-opacity:1;fill-rule:evenodd;stroke:none;stroke-width:0.2;stroke-miterlimit:4;stroke-dashoffset:0;stroke-opacity:1"
       id="path11141" />
    <path
       d="M 462.25465,181.98445 L 462.25465,215.57202"
       style="fill:none;fill-opacity:0.75;fill-rule:evenodd;stroke:#000000;stroke-width:1.5;stroke-linecap:butt;stroke-linejoin:miter;stroke-miterlimit:4;stroke-dasharray:none;stroke-opacity:1"
       id="path11143" />
    <path
       d="M 462.25,214.61218 C 461.6875,208.29968 467.09255,206.03844 469.75,203.11218 C 472.27596,200.33071 473.19867,197.12246 473.09548,194.11658 C 473.06793,193.31401 472.85005,189.83647 470.48103,186.34986 C 473.64895,195.09697 470.6995,198.60792 467.81807,201.40144 C 464.32813,204.7849 461.73195,207.97362 462.25,214.61218 z "
       style="fill:#000000;fill-opacity:1;fill-rule:evenodd;stroke:none;stroke-width:1px;stroke-linecap:butt;stroke-linejoin:miter;stroke-opacity:1"
       id="path12022" />
  </g>
</svg>
