<?xml version="1.0" encoding="utf-8"?>
<!-- Generator: Adobe Illustrator 26.0.1, SVG Export Plug-In . SVG Version: 6.00 Build 0)  -->
<svg version="1.1"
	 id="svg2" inkscape:version="0.43" sodipodi:docname="D:\Dokumenty\Wikipedie\images\svg\Treble clef.svg" sodipodi:version="0.34" xmlns:cc="http://web.resource.org/cc/" xmlns:dc="http://purl.org/dc/elements/1.1/" xmlns:inkscape="http://www.inkscape.org/namespaces/inkscape" xmlns:rdf="http://www.w3.org/1999/02/22-rdf-syntax-ns#" xmlns:sodipodi="http://sodipodi.sourceforge.net/DTD/sodipodi-0.dtd" xmlns:svg="http://www.w3.org/2000/svg"
	 xmlns="http://www.w3.org/2000/svg" xmlns:xlink="http://www.w3.org/1999/xlink" x="0px" y="0px" viewBox="0 0 311.8 612.3"
	 style="enable-background:new 0 0 311.8 612.3;" xml:space="preserve">
<style type="text/css">
	.st0{fill-rule:evenodd;clip-rule:evenodd;fill:#131516;stroke:#131516;stroke-width:0.4319;stroke-miterlimit:10;}
	.st1{fill:none;stroke:#131516;stroke-width:6.0465;stroke-miterlimit:10;}
</style>
<sodipodi:namedview  bordercolor="#666666" borderopacity="1.0" id="base" inkscape:current-layer="svg2" inkscape:cx="372.04742" inkscape:cy="526.18048" inkscape:pageopacity="0.0" inkscape:pageshadow="2" inkscape:window-height="540" inkscape:window-width="767" inkscape:window-x="198" inkscape:window-y="198" inkscape:zoom="0.35539137" pagecolor="#ffffff">
	</sodipodi:namedview>
<g id="Layer_1" transform="matrix(3.817349,0,0,3.808092,-3380.452,-23251.63)">
	<path id="path9" class="st0" d="M927.7,6194.2c-2.3,0.6-4.4,2.1-6.3,4.3c-1.9,2.2-2.9,4.7-2.9,7.3c0,1.7,0.6,3.5,1.7,5.5
		c1.1,2,2.8,3.5,4.9,4.5c0.7,0.2,1.1,0.5,1.1,1.1c0,0.2-0.3,0.4-0.9,0.5c-3.4-0.9-6.3-2.7-8.4-5.5c-2.2-2.8-3.3-6-3.4-9.6
		c0.1-3.9,1.3-7.5,3.5-10.8c2.3-3.4,5.2-5.7,8.7-7.1l-2.6-13.4c-5.8,4.8-10.5,9.8-14.2,15.1c-3.7,5.2-5.5,10.9-5.7,17.1
		c0.1,2.8,0.6,5.4,1.7,8c1.1,2.6,2.6,4.9,4.8,7.1c4.3,4.3,9.8,6.5,16.6,6.7c2.3-0.2,4.8-0.6,7.4-1.2L927.7,6194.2z M930.4,6193.8
		l5.9,29c5.8-2.3,8.7-7.4,8.7-15.2c-0.3-2.6-1.1-4.9-2.4-7c-1.2-2.1-2.9-3.8-5-5S933.1,6193.8,930.4,6193.8z M922.6,6154.6
		c1.2-0.8,2.7-2.1,4.2-3.9c1.5-1.8,3.1-4,4.5-6.4c1.5-2.5,2.6-4.9,3.5-7.5c0.9-2.5,1.3-4.9,1.3-7.1c0-0.9-0.1-1.9-0.3-2.7
		c-0.2-1.4-0.6-2.4-1.3-3.1c-0.7-0.7-1.6-1.1-2.8-1.1c-2.3,0-4.3,1.4-6.1,4.2c-1.4,2.4-2.6,5.3-3.4,8.5c-0.9,3.3-1.4,6.5-1.4,9.8
		C921.1,6149.1,921.7,6152.1,922.6,6154.6z M920.3,6156.7c-1.7-6.1-2.6-12.3-2.8-18.7c0-4.1,0.5-7.9,1.2-11.4
		c0.8-3.5,1.8-6.6,3.3-9.2c1.4-2.6,3-4.6,4.8-6c1.6-1.2,2.8-1.8,3.4-1.8c0.5,0,0.9,0.2,1.3,0.5c0.4,0.3,0.9,0.9,1.5,1.7
		c4.5,6.4,6.8,14.1,6.8,23c0,4.3-0.6,8.4-1.7,12.6c-1.1,4.1-2.7,8-4.9,11.7c-2.2,3.7-4.8,6.9-7.7,9.7l3.1,14.9
		c1.7-0.2,2.8-0.3,3.4-0.3c2.9,0,5.4,0.6,7.8,1.8c2.4,1.2,4.4,2.8,6.1,4.9c1.7,2,2.9,4.4,3.8,7c0.9,2.6,1.4,5.4,1.4,8.3
		c0,4.5-1.2,8.5-3.5,12.2c-2.3,3.7-5.8,6.3-10.6,8.1c0.3,1.8,0.8,4.5,1.6,8c0.8,3.5,1.3,6.2,1.7,8.3c0.4,2,0.5,4,0.5,5.9
		c0,3-0.7,5.6-2.1,8c-1.5,2.3-3.4,4.1-5.9,5.4c-2.5,1.3-5.2,1.9-8.1,1.9c-4.1,0-7.8-1.2-10.9-3.5c-3.1-2.3-4.8-5.5-4.9-9.5
		c0.1-1.8,0.5-3.4,1.3-5s1.8-2.9,3.1-3.8c1.3-1,2.8-1.5,4.6-1.7c1.5,0,2.9,0.4,4.2,1.2c1.3,0.8,2.3,1.9,3.1,3.3
		c0.8,1.4,1.2,2.9,1.2,4.6c0,2.2-0.8,4.1-2.3,5.7c-1.5,1.5-3.4,2.3-5.7,2.3h-0.9c1.5,2.3,3.9,3.4,7.2,3.4c1.7,0,3.4-0.4,5.2-1.1
		c1.8-0.7,3.2-1.7,4.5-2.9c1.2-1.2,2.1-2.5,2.4-3.8c0.6-1.5,0.9-3.7,0.9-6.4c0-1.8-0.2-3.6-0.5-5.4c-0.3-1.8-0.9-4.1-1.6-7.1
		c-0.7-2.9-1.2-5.2-1.5-6.7c-2.3,0.6-4.6,0.9-7.1,0.9c-4.1,0-8-0.8-11.7-2.5s-6.9-4-9.7-7.1c-2.8-3-4.9-6.4-6.4-10.3
		c-1.5-3.8-2.3-7.8-2.3-12c0.2-3.8,0.9-7.5,2.2-11c1.4-3.5,3.1-6.8,5.2-9.9c2.1-3.1,4.4-5.9,6.7-8.4
		C913.4,6163.8,916.4,6160.6,920.3,6156.7z"/>
	<path id="path11_00000130644974833054600520000016695845352402598535_" class="st1" d="M963.5,6183.1"/>
	<path id="path11_00000102539994484626859980000005093968826545798064_" class="st1" d="M889.3,6183.1"/>
	<path id="path13_00000182492563133111812010000007430265857628578464_" class="st1" d="M963.5,6227.7"/>
	<path id="path13_00000016795638196221210100000001752251723542680219_" class="st1" d="M889.3,6227.7"/>
	<path id="path15_00000059275826163019041280000009093467957213461908_" class="st1" d="M963.5,6205.4"/>
	<path id="path15_00000121267594231332836100000018237773305070440615_" class="st1" d="M889.3,6205.4"/>
	<path id="path17_00000121245783575391501010000002981186609290909871_" class="st1" d="M963.5,6160.9"/>
	<path id="path17_00000078752406573001145210000000664827099254323641_" class="st1" d="M889.3,6160.9"/>
	<path id="path19_00000094601902655530546160000008793056946533271455_" class="st1" d="M889.3,6138.6"/>
</g>
</svg>
