<?xml version="1.0" encoding="utf-8"?>
<!-- Generator: Adobe Illustrator 26.0.1, SVG Export Plug-In . SVG Version: 6.00 Build 0)  -->
<svg version="1.1" id="svg1622" xmlns:svg="http://www.w3.org/2000/svg"
	 xmlns="http://www.w3.org/2000/svg" xmlns:xlink="http://www.w3.org/1999/xlink" x="0px" y="0px" viewBox="0 0 13 41"
	 style="enable-background:new 0 0 13 41;" xml:space="preserve">
<style type="text/css">
	.st0{fill:none;stroke:#000000;stroke-width:1.5;}
	.st1{fill-rule:evenodd;clip-rule:evenodd;}
</style>
<g id="g16506" transform="translate(-519.7849,-288.4558)">
	<path id="path16455_00000008835205961448144570000006987408242233972375_" class="st0" d="M521,287.2"/>
	<path id="path16455_00000154410937895187477470000005079419865995283606_" class="st0" d="M521,329"/>
	<path id="path16457" class="st1" d="M521,295.7c-0.6,6.4,5.2,8.8,8.1,11.7c2.7,2.9,3.7,6.1,3.5,9.2c0,0.8-0.2,4.4-2.8,8
		c3.4-8.9,0.2-12.6-2.9-15.4C523.1,305.8,520.3,302.5,521,295.7z"/>
	<path id="path16462" class="st1" d="M520.1,300.6c-0.6,6.4,5.2,8.8,8.1,11.7c2.7,2.9,3.7,6.1,3.5,9.2c0,0.8-0.2,4.4-2.8,8
		c3.4-8.9,0.2-12.6-2.9-15.4C522.4,310.6,519.6,307.3,520.1,300.6z"/>
	<path id="path16504" class="st1" d="M520.6,288.6c-0.6,6.4,5.2,8.8,8.1,11.7c2.7,2.9,3.7,6.1,3.5,9.2c0,0.8-0.2,4.4-2.8,8
		c3.4-8.9,0.2-12.6-2.9-15.4C522.9,298.6,520.1,295.4,520.6,288.6z"/>
</g>
</svg>
