<?xml version="1.0" encoding="utf-8"?>
<!-- Generator: Adobe Illustrator 26.0.1, SVG Export Plug-In . SVG Version: 6.00 Build 0)  -->
<svg version="1.1" id="svg1572" xmlns:svg="http://www.w3.org/2000/svg"
	 xmlns="http://www.w3.org/2000/svg" xmlns:xlink="http://www.w3.org/1999/xlink" x="0px" y="0px" viewBox="0 0 13 41"
	 style="enable-background:new 0 0 13 41;" xml:space="preserve">
<style type="text/css">
	.st0{fill:none;stroke:#000000;stroke-width:1.5;}
	.st1{fill-rule:evenodd;clip-rule:evenodd;}
</style>
<g id="g16559" transform="translate(-393.8446,-234.1771)">
	<path id="path16484_00000059294639739529259710000015683088401066077316_" class="st0" d="M395.1,234.1"/>
	<path id="path16484_00000139257802169909181130000001360349504070002834_" class="st0" d="M395.1,272"/>
	<path id="path16486" class="st1" d="M394.5,234.7c-0.6,6.5,5.3,8.9,8.3,11.9c2.7,2.9,3.8,6.2,3.7,9.3c0,0.8-0.2,4.4-2.8,8
		c3.6-9,0.2-12.7-2.9-15.6C396.7,244.9,393.9,241.6,394.5,234.7z"/>
	<path id="path16488" class="st1" d="M394.2,241c-0.6,6.5,5.3,8.9,8.3,11.9c2.7,2.9,3.8,6.2,3.7,9.3c0,0.8-0.2,4.4-2.8,8
		c3.6-9,0.2-12.7-2.9-15.6C396.5,251.1,393.7,247.8,394.2,241z"/>
</g>
</svg>
