<?xml version="1.0" encoding="utf-8"?>
<!-- Generator: Adobe Illustrator 26.0.1, SVG Export Plug-In . SVG Version: 6.00 Build 0)  -->
<svg version="1.1" id="svg2208" xmlns:svg="http://www.w3.org/2000/svg"
	 xmlns="http://www.w3.org/2000/svg" xmlns:xlink="http://www.w3.org/1999/xlink" x="0px" y="0px" viewBox="0 0 15 27"
	 style="enable-background:new 0 0 15 27;" xml:space="preserve">
<style type="text/css">
	.st0{fill-rule:evenodd;clip-rule:evenodd;}
</style>
<g id="layer1" transform="translate(-482.02112,-143.61753)">
	<g id="g128" transform="matrix(1.8,0,0,1.8,-471.40868,9.4615275)">
		<path id="path130" class="st0" d="M532.4,75.2c-0.5,0.1-1,0.5-1.2,1.1c-0.1,0.2-0.1,0.2-0.1,0.5c0,0.3,0,0.5,0.2,0.8
			c0.2,0.5,0.7,0.8,1.2,0.9s1.4,0,2.5-0.3l0.2-0.1l-1.3,3.5l-1.2,3.5c0,0,0.1,0,0.1,0.1c0.2,0.1,0.4,0.2,0.5,0.2
			c0.2,0,0.6-0.2,0.6-0.3c0-0.1,0.6-2.1,1.4-4.5l1.3-4.4l-0.1-0.1c-0.1-0.2-0.3-0.2-0.5-0.1c-0.1,0.1-0.1,0.2-0.2,0.2
			c-0.2,0.3-0.7,0.9-0.9,1.1c-0.2,0.2-0.4,0.2-0.6,0.2c-0.2-0.1-0.2-0.2-0.4-0.8c-0.2-0.6-0.3-0.8-0.6-1.1
			C533.2,75.2,532.7,75.1,532.4,75.2z"/>
	</g>
</g>
</svg>
